<?xml version="1.0" encoding="utf-8"?>
<!-- Generator: Adobe Illustrator 18.0.0, SVG Export Plug-In . SVG Version: 6.00 Build 0)  -->
<!DOCTYPE svg PUBLIC "-//W3C//DTD SVG 1.1//EN" "http://www.w3.org/Graphics/SVG/1.1/DTD/svg11.dtd">
<svg version="1.1" xmlns="http://www.w3.org/2000/svg" xmlns:xlink="http://www.w3.org/1999/xlink" x="0px" y="0px" width="100px"
	 height="100px" viewBox="0 0 100 100" enable-background="new 0 0 100 100" xml:space="preserve">
<g id="UI">
	<g id="diamond">
	</g>
	<g id="logo">
	</g>
	<g id="logo-minimal">
	</g>
	<g id="calendar">
	</g>
	<g id="pulse">
	</g>
	<g id="play">
	</g>
	<g id="plus">
	</g>
	<g id="minus">
	</g>
	<g id="edit">
	</g>
	<g id="Social-Icons">
		<g id="pinterest">
			<path d="M88.4,27.8C85.7,8.1,66-2,45,0.3C28.4,2.2,11.8,15.6,11.1,34.8c-0.4,11.7,2.9,20.5,14.1,23c4.8-8.5-1.6-10.4-2.6-16.6
				C18.6,15.9,51.8-1.4,69.3,16.3c12.1,12.3,4.1,49.9-15.3,46c-18.6-3.7,9.1-33.7-5.7-39.6C36.1,17.9,29.7,37.3,35.4,47
				c-3.4,16.6-10.6,32.2-7.7,53c9.5-6.9,12.7-20.1,15.3-33.9c4.8,2.9,7.4,5.9,13.4,6.4C79,74.2,91.5,50.1,88.4,27.8L88.4,27.8z
				 M88.4,27.8"/>
		</g>
		<g id="googplePlus">
		</g>
		<g id="facebook">
		</g>
		<g id="twitter">
		</g>
		<g id="instagram">
		</g>
	</g>
</g>
<g id="ALIGN">
</g>
</svg>
