<svg xmlns="http://www.w3.org/2000/svg" style="display: none;">

    <symbol id="svgi_ui_diamond" viewBox="0 0 100 100">
        <path d="M98.7,30.2L85.3,10H50.9h-1.5H15.3L1,30.2l-1,1.4l2,2.4l48.1,56l48.4-56l1.5-1.7L98.7,30.2z M80.7,13.8L70.2,29.1
            L54.7,13.8H80.7z M50.1,14.6l15.8,15.6H34.1L50.1,14.6z M45.5,13.8L29.8,29.1L19.8,13.8H45.5z M16.2,15.2L26,30.2H5.6L16.2,15.2z
             M7,33.9h21.2l16.5,44L7,33.9z M32.2,33.9h35.6L50.1,81.7L32.2,33.9z M55.5,78l16.3-44.1h21.8L55.5,78z M74,30.2l10.2-14.9
            l9.9,14.9H74z"/>
    </symbol>


<!-- UI - SOCIAL ICONS -->
    <symbol id="svgi_ui_facebook" viewBox="0 0 100 100">
            <path d="M36.8,19.4v13.8H26.7V50h10.1v50h20.7V50h13.9c0,0,1.3-8.1,1.9-16.9H57.6V21.6c0-1.7,2.3-4,4.5-4h11.3V0H58
                C36.2,0,36.8,16.9,36.8,19.4L36.8,19.4z M36.8,19.4"/>
    </symbol>

    <symbol id="svgi_ui_twitter" viewBox="0 0 100 100">
            <path d="M100,19c-3.7,1.6-7.6,2.7-11.8,3.2c4.2-2.5,7.5-6.6,9-11.4c-4,2.4-8.4,4.1-13.1,5c-3.7-4-9.1-6.5-15-6.5
                c-11.3,0-20.5,9.2-20.5,20.5c0,1.6,0.2,3.2,0.5,4.7c-17.1-0.9-32.2-9-42.3-21.4c-1.8,3-2.8,6.6-2.8,10.3c0,7.1,3.6,13.4,9.1,17.1
                c-3.4-0.1-6.5-1-9.3-2.6v0.3c0,9.9,7.1,18.2,16.4,20.1c-1.7,0.5-3.5,0.7-5.4,0.7c-1.3,0-2.6-0.1-3.9-0.4
                c2.6,8.1,10.2,14.1,19.2,14.2c-7,5.5-15.9,8.8-25.5,8.8c-1.6,0-3.3-0.1-4.9-0.3c9.1,5.8,19.9,9.2,31.5,9.2
                c37.7,0,58.3-31.2,58.3-58.3l-0.1-2.7C93.8,26.7,97.3,23.1,100,19L100,19z M100,19"/>
    </symbol>

    <symbol id="svgi_ui_youTube" viewBox="0 0 100 100">
        <path d="M78.8,73.1h-5.5l0-3.2c0-1.4,1.2-2.6,2.6-2.6h0.4c1.4,0,2.6,1.2,2.6,2.6L78.8,73.1z M58.2,66.3c-1.4,0-2.5,0.9-2.5,2.1
            v15.5c0,1.1,1.1,2.1,2.5,2.1c1.4,0,2.5-0.9,2.5-2.1V68.4C60.8,67.3,59.6,66.3,58.2,66.3L58.2,66.3z M91.7,57.6v29.5
            c0,7.1-6.1,12.9-13.6,12.9H22c-7.5,0-13.6-5.8-13.6-12.9V57.6c0-7.1,6.1-12.9,13.6-12.9H78C85.5,44.8,91.7,50.6,91.7,57.6
            L91.7,57.6z M25.7,90.3V59.3h6.9v-4.6l-18.5,0v4.5l5.8,0v31.2H25.7z M46.5,63.9h-5.8v16.6c0,2.4,0.1,3.6,0,4
            c-0.5,1.3-2.6,2.7-3.4,0.1c-0.1-0.4,0-1.8,0-4l0-16.7h-5.8l0,16.4c0,2.5-0.1,4.4,0,5.3c0.1,1.5,0.1,3.3,1.5,4.3
            c2.6,1.9,7.6-0.3,8.9-3l0,3.4l4.7,0L46.5,63.9L46.5,63.9z M65.1,82.9l0-13.8c0-5.3-3.9-8.4-9.3-4.2l0-10.3l-5.8,0l0,35.4l4.8-0.1
            l0.4-2.2C61.3,93.4,65.1,89.6,65.1,82.9L65.1,82.9z M83.2,81.1l-4.3,0c0,0.2,0,0.4,0,0.6v2.4c0,1.3-1.1,2.3-2.4,2.3h-0.9
            c-1.3,0-2.4-1.1-2.4-2.3v-6.4h9.9V74c0-2.7-0.1-5.5-0.3-7c-0.7-4.9-7.7-5.7-11.2-3.2c-1.1,0.8-1.9,1.8-2.4,3.3
            c-0.5,1.4-0.7,3.4-0.7,5.8v8.2C68.6,94.8,85.2,92.8,83.2,81.1L83.2,81.1z M60.9,36.4c0.3,0.7,0.8,1.3,1.4,1.8
            c0.6,0.4,1.4,0.7,2.4,0.7c0.8,0,1.6-0.2,2.2-0.7c0.6-0.5,1.2-1.2,1.6-2.1l-0.1,2.3h6.5V10.8h-5.1v21.4c0,1.2-1,2.1-2.1,2.1
            c-1.2,0-2.1-0.9-2.1-2.1V10.8h-5.3v18.5c0,2.4,0,3.9,0.1,4.7C60.4,34.9,60.6,35.6,60.9,36.4L60.9,36.4z M41.4,20.9
            c0-2.6,0.2-4.7,0.7-6.2c0.4-1.5,1.2-2.7,2.4-3.6c1.1-0.9,2.6-1.4,4.4-1.4c1.5,0,2.8,0.3,3.8,0.9c1.1,0.6,1.9,1.3,2.5,2.3
            c0.6,0.9,1,1.9,1.2,2.9c0.2,1,0.3,2.5,0.3,4.5v6.9c0,2.5-0.1,4.4-0.3,5.6c-0.2,1.2-0.6,2.3-1.3,3.3c-0.6,1-1.5,1.8-2.5,2.3
            c-1,0.5-2.2,0.7-3.5,0.7c-1.5,0-2.7-0.2-3.7-0.6c-1-0.4-1.8-1.1-2.4-1.9c-0.6-0.8-1-1.9-1.2-3.1c-0.2-1.2-0.4-3-0.4-5.4V20.9z
             M46.4,31.8c0,1.6,1.2,2.8,2.6,2.8c1.4,0,2.6-1.3,2.6-2.8V17.1c0-1.6-1.2-2.8-2.6-2.8c-1.4,0-2.6,1.3-2.6,2.8V31.8z M28.5,39.1
            h6.1l0-21.1l7.2-18h-6.7l-3.8,13.4L27.5,0h-6.6l7.7,18.1L28.5,39.1z M28.5,39.1"/>
    </symbol>

    <symbol id="svgi_ui_instagram" viewBox="0 0 100 100">
        <path fill-rule="evenodd" clip-rule="evenodd" d="M12.8,0h74.3C94.2,0,100,5.2,100,12.8v74.3c0,7.6-5.8,12.8-12.8,12.8H12.8
            C5.8,100,0,94.8,0,87.2V12.8C0,5.2,5.8,0,12.8,0L12.8,0z M72.8,11.1c-2.5,0-4.5,2-4.5,4.5v10.8c0,2.5,2,4.5,4.5,4.5h11.3
            c2.5,0,4.5-2,4.5-4.5V15.6c0-2.5-2-4.5-4.5-4.5H72.8z M88.7,42.3h-8.8c0.8,2.7,1.3,5.6,1.3,8.6C81.2,67.5,67.3,81,50.1,81
            C32.9,81,19,67.5,19,50.9c0-3,0.5-5.9,1.3-8.6h-9.2v42.2c0,2.2,1.8,4,4,4h69.6c2.2,0,4-1.8,4-4V42.3z M50.1,30.3
            C39,30.3,30,39,30,49.8s9,19.5,20.1,19.5c11.1,0,20.1-8.7,20.1-19.5S61.2,30.3,50.1,30.3L50.1,30.3z M50.1,30.3"/>
    </symbol>


    <symbol id="svgi_ui_googlePlus" viewBox="0 0 100 100">
        <path d="M76.7,45.7H40.9v11.9h21.8C59.5,68,49.8,75.5,38.3,75.5c-14.1,0-25.6-11.4-25.6-25.6c0-14.1,11.4-25.6,25.6-25.6
            c7.1,0,13.5,2.9,18.2,7.6l8.7-9.4c-6.9-6.8-16.4-11-26.8-11C17.2,11.7,0,28.8,0,50c0,21.2,17.2,38.3,38.3,38.3
            c18.5,0,34.8-13.2,38.3-30.7V45.7z M76.7,45.7"/>
        <path d="M99.9,45.7h-7.3v-7.3h-6.3v7.3H79V52h7.3v7.3h6.3V52h7.3V45.7z M99.9,45.7"/>
    </symbol>

    <symbol id="svgi_ui_pinterest" viewBox="0 0 100 100">
        <path d="M88.4,27.8C85.7,8.1,66-2,45,0.3C28.4,2.2,11.8,15.6,11.1,34.8c-0.4,11.7,2.9,20.5,14.1,23c4.8-8.5-1.6-10.4-2.6-16.6
            C18.6,15.9,51.8-1.4,69.3,16.3c12.1,12.3,4.1,49.9-15.3,46c-18.6-3.7,9.1-33.7-5.7-39.6C36.1,17.9,29.7,37.3,35.4,47
            c-3.4,16.6-10.6,32.2-7.7,53c9.5-6.9,12.7-20.1,15.3-33.9c4.8,2.9,7.4,5.9,13.4,6.4C79,74.2,91.5,50.1,88.4,27.8L88.4,27.8z
             M88.4,27.8"/>
    </symbol>
</svg>