<?xml version="1.0" encoding="utf-8"?>
<!-- Generator: Adobe Illustrator 18.0.0, SVG Export Plug-In . SVG Version: 6.00 Build 0)  -->
<!DOCTYPE svg PUBLIC "-//W3C//DTD SVG 1.1//EN" "http://www.w3.org/Graphics/SVG/1.1/DTD/svg11.dtd">
<svg version="1.1" xmlns="http://www.w3.org/2000/svg" xmlns:xlink="http://www.w3.org/1999/xlink" x="0px" y="0px" width="100px"
	 height="100px" viewBox="0 0 100 100" enable-background="new 0 0 100 100" xml:space="preserve">
<g id="UI">
	<g id="diamond">
	</g>
	<g id="logo">
	</g>
	<g id="logo-minimal">
		<path d="M98.7,30.2L85.3,10H50.9h-1.5H15.3L1,30.2l-1,1.4l2,2.4l48.1,56l48.4-56l1.5-1.7L98.7,30.2z M80.7,13.8L70.2,29.1
			L54.7,13.8H80.7z M50.1,14.6l15.8,15.6H34.1L50.1,14.6z M45.5,13.8L29.8,29.1L19.8,13.8H45.5z M16.2,15.2L26,30.2H5.6L16.2,15.2z
			 M7,33.9h21.2l16.5,44L7,33.9z M32.2,33.9h35.6L50.1,81.7L32.2,33.9z M55.5,78l16.3-44.1h21.8L55.5,78z M74,30.2l10.2-14.9
			l9.9,14.9H74z"/>
	</g>
	<g id="calendar">
	</g>
	<g id="pulse">
	</g>
	<g id="play">
	</g>
	<g id="plus">
	</g>
	<g id="minus">
	</g>
	<g id="edit">
	</g>
	<g id="Social-Icons">
		<g id="pinterest">
		</g>
		<g id="googplePlus">
		</g>
		<g id="facebook">
		</g>
		<g id="twitter">
		</g>
		<g id="instagram">
		</g>
	</g>
</g>
<g id="ALIGN">
</g>
</svg>
