<?xml version="1.0" encoding="utf-8"?>
<!-- Generator: Adobe Illustrator 18.0.0, SVG Export Plug-In . SVG Version: 6.00 Build 0)  -->
<!DOCTYPE svg PUBLIC "-//W3C//DTD SVG 1.1//EN" "http://www.w3.org/Graphics/SVG/1.1/DTD/svg11.dtd">
<svg version="1.1" xmlns="http://www.w3.org/2000/svg" xmlns:xlink="http://www.w3.org/1999/xlink" x="0px" y="0px" width="100px"
	 height="100px" viewBox="0 0 100 100" enable-background="new 0 0 100 100" xml:space="preserve">
<g id="UI">
	<g id="diamond">
	</g>
	<g id="logo">
	</g>
	<g id="logo-minimal">
	</g>
	<g id="calendar">
	</g>
	<g id="pulse">
	</g>
	<g id="play">
	</g>
	<g id="plus">
	</g>
	<g id="minus">
	</g>
	<g id="edit">
	</g>
	<g id="Social-Icons">
		<g id="pinterest">
		</g>
		<g id="googplePlus">
			<g>
				<path d="M76.7,45.7H40.9v11.9h21.8C59.5,68,49.8,75.5,38.3,75.5c-14.1,0-25.6-11.4-25.6-25.6c0-14.1,11.4-25.6,25.6-25.6
					c7.1,0,13.5,2.9,18.2,7.6l8.7-9.4c-6.9-6.8-16.4-11-26.8-11C17.2,11.7,0,28.8,0,50c0,21.2,17.2,38.3,38.3,38.3
					c18.5,0,34.8-13.2,38.3-30.7V45.7z M76.7,45.7"/>
				<path d="M99.9,45.7h-7.3v-7.3h-6.3v7.3H79V52h7.3v7.3h6.3V52h7.3V45.7z M99.9,45.7"/>
			</g>
		</g>
		<g id="facebook">
		</g>
		<g id="twitter">
		</g>
		<g id="instagram">
		</g>
	</g>
</g>
<g id="ALIGN">
</g>
</svg>
